Antonio-Regular.ufo
<glyph name="exclam" format="1">
  <advance width="536"/>
  <unicode hex="0021"/>
  <outline>
    <contour>
      <point x="166" y="1760" type="line"/>
      <point x="233" y="377" type="line"/>
      <point x="301" y="377" type="line"/>
      <point x="370" y="1760" type="line"/>
    </contour>
    <contour>
      <point x="167" y="211" type="line"/>
      <point x="167" y="0" type="line"/>
      <point x="365" y="0" type="line"/>
      <point x="365" y="211" type="line"/>
    </contour>
  </outline>
</glyph>
<glyph name="quotedbl" format="1">
  <advance width="944"/>
  <unicode hex="0022"/>
  <outline>
    <contour>
      <point x="535" y="1761" type="line"/>
      <point x="595" y="1125" type="line"/>
      <point x="641" y="1125" type="line"/>
      <point x="706" y="1761" type="line"/>
    </contour>
    <contour>
      <point x="251" y="1761" type="line"/>
      <point x="311" y="1125" type="line"/>
      <point x="357" y="1125" type="line"/>
      <point x="422" y="1761" type="line"/>
    </contour>
  </outline>
</glyph>
<glyph name="ampersand" format="1">
  <advance width="937"/>
  <unicode hex="0026"/>
  <outline>
    <contour>
      <point x="283" y="1782"/>
      <point x="181" y="1668"/>
      <point x="181" y="1441" type="curve" smooth="yes"/>
      <point x="181" y="1190"/>
      <point x="685" y="256"/>
      <point x="791" y="0" type="curve"/>
      <point x="935" y="0" type="line"/>
      <point x="779" y="358"/>
      <point x="343" y="1200"/>
      <point x="343" y="1441" type="curve" smooth="yes"/>
      <point x="343" y="1515"/>
      <point x="332" y="1653"/>
      <point x="479" y="1653" type="curve" smooth="yes"/>
      <point x="588" y="1653"/>
      <point x="605" y="1584"/>
      <point x="605" y="1450" type="curve" smooth="yes"/>
      <point x="605" y="1016"/>
      <point x="62" y="875"/>
      <point x="62" y="357" type="curve" smooth="yes"/>
      <point x="62" y="100"/>
      <point x="192" y="-20"/>
      <point x="369" y="-20" type="curve" smooth="yes"/>
      <point x="736" y="-20"/>
      <point x="698" y="385"/>
      <point x="946" y="690" type="curve"/>
      <point x="871" y="809" type="line"/>
      <point x="603" y="491"/>
      <point x="593" y="122"/>
      <point x="391" y="122" type="curve" smooth="yes"/>
      <point x="258" y="122"/>
      <point x="217" y="229"/>
      <point x="227" y="379" type="curve" smooth="yes"/>
      <point x="254" y="804"/>
      <point x="752" y="1025"/>
      <point x="752" y="1434" type="curve" smooth="yes"/>
      <point x="752" y="1654"/>
      <point x="699" y="1782"/>
      <point x="473" y="1782" type="curve" smooth="yes"/>
    </contour>
  </outline>
</glyph>
<glyph name="parenleft" format="1">
  <advance width="535"/>
  <unicode hex="0028"/>
  <outline>
    <contour>
      <point x="192" y="1804"/>
      <point x="132" y="1749"/>
      <point x="132" y="1386" type="curve" smooth="yes"/>
      <point x="132" y="313" type="line" smooth="yes"/>
      <point x="132" y="-50"/>
      <point x="192" y="-105"/>
      <point x="439" y="-105" type="curve"/>
      <point x="439" y="22" type="line"/>
      <point x="319" y="22"/>
      <point x="300" y="23"/>
      <point x="300" y="309" type="curve" smooth="yes"/>
      <point x="300" y="1390" type="line" smooth="yes"/>
      <point x="300" y="1676"/>
      <point x="319" y="1677"/>
      <point x="439" y="1677" type="curve"/>
      <point x="439" y="1804" type="line"/>
    </contour>
  </outline>
</glyph>
<glyph name="asterisk" format="1">
  <advance width="960"/>
  <unicode hex="002A"/>
  <outline>
    <contour>
      <point x="409" y="1760" type="line"/>
      <point x="435" y="1489" type="line"/>
      <point x="205" y="1654" type="line"/>
      <point x="133" y="1530" type="line"/>
      <point x="385" y="1409" type="line"/>
      <point x="140" y="1280" type="line"/>
      <point x="212" y="1155" type="line"/>
      <point x="435" y="1328" type="line"/>
      <point x="409" y="1050" type="line"/>
      <point x="551" y="1050" type="line"/>
      <point x="530" y="1324" type="line"/>
      <point x="755" y="1147" type="line"/>
      <point x="827" y="1271" type="line"/>
      <point x="575" y="1409" type="line"/>
      <point x="827" y="1539" type="line"/>
      <point x="755" y="1663" type="line"/>
      <point x="530" y="1491" type="line"/>
      <point x="551" y="1760" type="line"/>
    </contour>
  </outline>
</glyph>
<glyph name="plus" format="1">
  <advance width="808"/>
  <unicode hex="002B"/>
  <outline>
    <contour>
      <point x="337" y="1184" type="line"/>
      <point x="337" y="929" type="line"/>
      <point x="109" y="929" type="line"/>
      <point x="109" y="812" type="line"/>
      <point x="337" y="812" type="line"/>
      <point x="337" y="551" type="line"/>
      <point x="465" y="551" type="line"/>
      <point x="465" y="812" type="line"/>
      <point x="697" y="812" type="line"/>
      <point x="697" y="929" type="line"/>
      <point x="465" y="929" type="line"/>
      <point x="465" y="1184" type="line"/>
    </contour>
  </outline>
</glyph>
<glyph name="hyphen" format="1">
  <advance width="696"/>
  <unicode hex="002D"/>
  <outline>
    <contour>
      <point x="88" y="938" type="line"/>
      <point x="88" y="826" type="line"/>
      <point x="524" y="826" type="line"/>
      <point x="524" y="938" type="line"/>
    </contour>
  </outline>
</glyph>
<glyph name="period" format="1">
  <advance width="532"/>
  <unicode hex="002E"/>
  <outline>
    <contour>
      <point x="185" y="168" type="line"/>
      <point x="185" y="0" type="line"/>
      <point x="328" y="0" type="line"/>
      <point x="328" y="168" type="line"/>
    </contour>
  </outline>
</glyph>
<glyph name="slash" format="1">
  <advance width="756"/>
  <unicode hex="002F"/>
  <outline>
    <contour>
      <point x="534" y="1768" type="line"/>
      <point x="88" y="0" type="line"/>
      <point x="238" y="0" type="line"/>
      <point x="685" y="1768" type="line"/>
    </contour>
  </outline>
</glyph>
<glyph name="one" format="1">
  <advance width="626"/>
  <unicode hex="0031"/>
  <outline>
    <contour>
      <point x="329" y="1761" type="line"/>
      <point x="273" y="1629"/>
      <point x="157" y="1556"/>
      <point x="51" y="1541" type="curve"/>
      <point x="51" y="1431" type="line"/>
      <point x="125" y="1431"/>
      <point x="221" y="1460"/>
      <point x="269" y="1517" type="curve"/>
      <point x="269" y="0" type="line"/>
      <point x="437" y="0" type="line"/>
      <point x="437" y="1761" type="line"/>
    </contour>
  </outline>
</glyph>
<glyph name="two" format="1">
  <advance width="856"/>
  <unicode hex="0032"/>
  <outline>
    <contour>
      <point x="191" y="1780"/>
      <point x="176" y="1553"/>
      <point x="176" y="1173" type="curve" smooth="yes"/>
      <point x="176" y="1065" type="line"/>
      <point x="344" y="1065" type="line"/>
      <point x="344" y="1297" type="line" smooth="yes"/>
      <point x="344" y="1592"/>
      <point x="402" y="1638"/>
      <point x="468" y="1638" type="curve" smooth="yes"/>
      <point x="532" y="1638"/>
      <point x="583" y="1590"/>
      <point x="583" y="1313" type="curve" smooth="yes"/>
      <point x="583" y="1191"/>
      <point x="553" y="1026"/>
      <point x="512" y="942" type="curve" smooth="yes"/>
      <point x="390" y="689" type="line" smooth="yes"/>
      <point x="283" y="467"/>
      <point x="182" y="220"/>
      <point x="182" y="94" type="curve" smooth="yes"/>
      <point x="182" y="0" type="line"/>
      <point x="720" y="0" type="line"/>
      <point x="720" y="120" type="line"/>
      <point x="349" y="120" type="line"/>
      <point x="402" y="574"/>
      <point x="744" y="823"/>
      <point x="744" y="1293" type="curve" smooth="yes"/>
      <point x="744" y="1521"/>
      <point x="711" y="1780"/>
      <point x="488" y="1780" type="curve" smooth="yes"/>
    </contour>
  </outline>
</glyph>
<glyph name="three" format="1">
  <advance width="876"/>
  <unicode hex="0033"/>
  <outline>
    <contour>
      <point x="205" y="1780"/>
      <point x="125" y="1623"/>
      <point x="125" y="1320" type="curve" smooth="yes"/>
      <point x="125" y="1283" type="line"/>
      <point x="293" y="1283" type="line"/>
      <point x="293" y="1317" type="line" smooth="yes"/>
      <point x="293" y="1579"/>
      <point x="347" y="1638"/>
      <point x="435" y="1638" type="curve" smooth="yes"/>
      <point x="525" y="1638"/>
      <point x="596" y="1593"/>
      <point x="596" y="1321" type="curve" smooth="yes"/>
      <point x="596" y="1030"/>
      <point x="535" y="990"/>
      <point x="391" y="990" type="curve" smooth="yes"/>
      <point x="348" y="990" type="line"/>
      <point x="348" y="850" type="line"/>
      <point x="393" y="850" type="line" smooth="yes"/>
      <point x="540" y="850"/>
      <point x="599" y="765"/>
      <point x="599" y="477" type="curve" smooth="yes"/>
      <point x="599" y="215"/>
      <point x="565" y="121"/>
      <point x="437" y="121" type="curve" smooth="yes"/>
      <point x="307" y="121"/>
      <point x="287" y="201"/>
      <point x="287" y="473" type="curve" smooth="yes"/>
      <point x="287" y="529" type="line"/>
      <point x="119" y="529" type="line"/>
      <point x="119" y="474" type="line" smooth="yes"/>
      <point x="119" y="141"/>
      <point x="203" y="-20"/>
      <point x="435" y="-20" type="curve" smooth="yes"/>
      <point x="667" y="-20"/>
      <point x="767" y="141"/>
      <point x="767" y="474" type="curve" smooth="yes"/>
      <point x="767" y="671"/>
      <point x="715" y="861"/>
      <point x="588" y="918" type="curve"/>
      <point x="715" y="966"/>
      <point x="764" y="1120"/>
      <point x="764" y="1320" type="curve" smooth="yes"/>
      <point x="764" y="1623"/>
      <point x="669" y="1780"/>
      <point x="437" y="1780" type="curve" smooth="yes"/>
    </contour>
  </outline>
</glyph>
<glyph name="four" format="1">
  <advance width="856"/>
  <unicode hex="0034"/>
  <outline>
    <contour>
      <point x="493" y="1761" type="line"/>
      <point x="100" y="458" type="line"/>
      <point x="100" y="345" type="line"/>
      <point x="504" y="345" type="line"/>
      <point x="504" y="-1" type="line"/>
      <point x="660" y="-1" type="line"/>
      <point x="660" y="345" type="line"/>
      <point x="811" y="345" type="line"/>
      <point x="811" y="477" type="line"/>
      <point x="660" y="477" type="line"/>
      <point x="660" y="1761" type="line"/>
    </contour>
    <contour>
      <point x="504" y="477" type="line"/>
      <point x="247" y="477" type="line"/>
      <point x="504" y="1423" type="line"/>
    </contour>
  </outline>
</glyph>
<glyph name="eight" format="1">
  <advance width="856"/>
  <unicode hex="0038"/>
  <outline>
    <contour>
      <point x="203" y="1780"/>
      <point x="126" y="1649"/>
      <point x="126" y="1346" type="curve" smooth="yes"/>
      <point x="126" y="1149"/>
      <point x="160" y="1006"/>
      <point x="264" y="932" type="curve"/>
      <point x="166" y="866"/>
      <point x="110" y="654"/>
      <point x="110" y="454" type="curve" smooth="yes"/>
      <point x="110" y="121"/>
      <point x="201" y="-20"/>
      <point x="433" y="-20" type="curve" smooth="yes"/>
      <point x="665" y="-20"/>
      <point x="746" y="121"/>
      <point x="746" y="454" type="curve" smooth="yes"/>
      <point x="746" y="651"/>
      <point x="689" y="869"/>
      <point x="597" y="936" type="curve"/>
      <point x="703" y="1008"/>
      <point x="742" y="1146"/>
      <point x="742" y="1346" type="curve" smooth="yes"/>
      <point x="742" y="1649"/>
      <point x="667" y="1780"/>
      <point x="435" y="1780" type="curve" smooth="yes"/>
    </contour>
    <contour>
      <point x="517" y="867"/>
      <point x="578" y="745"/>
      <point x="578" y="457" type="curve" smooth="yes"/>
      <point x="578" y="198"/>
      <point x="563" y="120"/>
      <point x="435" y="120" type="curve" smooth="yes"/>
      <point x="305" y="120"/>
      <point x="278" y="201"/>
      <point x="278" y="453" type="curve" smooth="yes"/>
      <point x="278" y="744"/>
      <point x="358" y="867"/>
      <point x="435" y="867" type="curve" smooth="yes"/>
    </contour>
    <contour>
      <point x="523" y="1640"/>
      <point x="574" y="1619"/>
      <point x="574" y="1347" type="curve" smooth="yes"/>
      <point x="574" y="1056"/>
      <point x="510" y="990"/>
      <point x="433" y="990" type="curve" smooth="yes"/>
      <point x="351" y="990"/>
      <point x="294" y="1055"/>
      <point x="294" y="1343" type="curve" smooth="yes"/>
      <point x="294" y="1605"/>
      <point x="345" y="1640"/>
      <point x="433" y="1640" type="curve" smooth="yes"/>
    </contour>
  </outline>
</glyph>
<glyph name="nine" format="1">
  <advance width="856"/>
  <unicode hex="0039"/>
  <outline>
    <contour>
      <point x="99" y="1780"/>
      <point x="67" y="1554"/>
      <point x="67" y="1251" type="curve" smooth="yes"/>
      <point x="67" y="1219" type="line" smooth="yes"/>
      <point x="67" y="856"/>
      <point x="122" y="662"/>
      <point x="365" y="662" type="curve" smooth="yes"/>
      <point x="427" y="662"/>
      <point x="488" y="678"/>
      <point x="523" y="710" type="curve"/>
      <point x="523" y="519" type="line" smooth="yes"/>
      <point x="523" y="238"/>
      <point x="530" y="120"/>
      <point x="407" y="120" type="curve" smooth="yes"/>
      <point x="288" y="120"/>
      <point x="266" y="178"/>
      <point x="266" y="510" type="curve"/>
      <point x="105" y="510" type="line"/>
      <point x="105" y="147"/>
      <point x="165" y="-20"/>
      <point x="393" y="-20" type="curve" smooth="yes"/>
      <point x="651" y="-20"/>
      <point x="691" y="177"/>
      <point x="691" y="540" type="curve" smooth="yes"/>
      <point x="691" y="1251" type="line" smooth="yes"/>
      <point x="691" y="1554"/>
      <point x="663" y="1780"/>
      <point x="381" y="1780" type="curve" smooth="yes"/>
    </contour>
    <contour>
      <point x="503" y="1636"/>
      <point x="523" y="1510"/>
      <point x="523" y="1263" type="curve" smooth="yes"/>
      <point x="523" y="830" type="line"/>
      <point x="504" y="813"/>
      <point x="459" y="793"/>
      <point x="385" y="793" type="curve" smooth="yes"/>
      <point x="256" y="793"/>
      <point x="235" y="896"/>
      <point x="235" y="1198" type="curve" smooth="yes"/>
      <point x="235" y="1264" type="line" smooth="yes"/>
      <point x="235" y="1509"/>
      <point x="253" y="1636"/>
      <point x="381" y="1636" type="curve" smooth="yes"/>
    </contour>
  </outline>
</glyph>
<glyph name="colon" format="1">
  <advance width="555"/>
  <unicode hex="003A"/>
  <outline>
    <contour>
      <point x="112" y="1307" type="line"/>
      <point x="112" y="1009" type="line"/>
      <point x="443" y="1009" type="line"/>
      <point x="443" y="1307" type="line"/>
    </contour>
    <contour>
      <point x="112" y="568" type="line"/>
      <point x="112" y="270" type="line"/>
      <point x="443" y="270" type="line"/>
      <point x="443" y="568" type="line"/>
    </contour>
  </outline>
</glyph>
<glyph name="semicolon" format="1">
  <advance width="561"/>
  <unicode hex="003B"/>
  <outline>
    <contour>
      <point x="150" y="534" type="line"/>
      <point x="150" y="299" type="line"/>
      <point x="284" y="299" type="line"/>
      <point x="193" y="-100" type="line"/>
      <point x="306" y="-100" type="line"/>
      <point x="424" y="308" type="line"/>
      <point x="424" y="534" type="line"/>
    </contour>
    <contour>
      <point x="137" y="1224" type="line"/>
      <point x="137" y="960" type="line"/>
      <point x="406" y="960" type="line"/>
      <point x="406" y="1224" type="line"/>
    </contour>
  </outline>
</glyph>
<glyph name="less" format="1">
  <advance width="730"/>
  <unicode hex="003C"/>
  <outline>
    <contour>
      <point x="63" y="835" type="line"/>
      <point x="63" y="675" type="line"/>
      <point x="641" y="280" type="line"/>
      <point x="641" y="458" type="line"/>
      <point x="185" y="757" type="line"/>
      <point x="641" y="1041" type="line"/>
      <point x="641" y="1226" type="line"/>
    </contour>
  </outline>
</glyph>
<glyph name="equal" format="1">
  <advance width="722"/>
  <unicode hex="003D"/>
  <outline>
    <contour>
      <point x="104" y="1033" type="line"/>
      <point x="104" y="892" type="line"/>
      <point x="618" y="892" type="line"/>
      <point x="618" y="1033" type="line"/>
    </contour>
    <contour>
      <point x="104" y="734" type="line"/>
      <point x="104" y="593" type="line"/>
      <point x="618" y="593" type="line"/>
      <point x="618" y="734" type="line"/>
    </contour>
  </outline>
</glyph>
<glyph name="question" format="1">
  <advance width="738.287"/>
  <unicode hex="003F"/>
  <outline>
    <contour>
      <point x="133" y="1782"/>
      <point x="152" y="1523"/>
      <point x="152" y="1367" type="curve" smooth="yes"/>
      <point x="152" y="1160" type="line"/>
      <point x="320" y="1160" type="line"/>
      <point x="320" y="1369" type="line" smooth="yes"/>
      <point x="320" y="1578"/>
      <point x="321" y="1638"/>
      <point x="408" y="1638" type="curve" smooth="yes"/>
      <point x="488" y="1638"/>
      <point x="486" y="1571"/>
      <point x="486" y="1373" type="curve" smooth="yes"/>
      <point x="486" y="1029"/>
      <point x="486" y="898"/>
      <point x="232" y="810" type="curve"/>
      <point x="232" y="494" type="line"/>
      <point x="375" y="494" type="line"/>
      <point x="375" y="739" type="line"/>
      <point x="595" y="801"/>
      <point x="654" y="963"/>
      <point x="654" y="1309" type="curve" smooth="yes"/>
      <point x="654" y="1592"/>
      <point x="653" y="1782"/>
      <point x="404" y="1782" type="curve" smooth="yes"/>
    </contour>
    <contour>
      <point x="232" y="299" type="line"/>
      <point x="232" y="1" type="line"/>
      <point x="375" y="1" type="line"/>
      <point x="375" y="299" type="line"/>
    </contour>
  </outline>
</glyph>
<glyph name="A" format="1">
  <advance width="916"/>
  <unicode hex="0041"/>
  <outline>
    <contour>
      <point x="352" y="1760" type="line"/>
      <point x="74" y="0" type="line"/>
      <point x="234" y="0" type="line"/>
      <point x="447" y="1447" type="line"/>
      <point x="449" y="1447" type="line"/>
      <point x="681" y="0" type="line"/>
      <point x="842" y="0" type="line"/>
      <point x="536" y="1760" type="line"/>
    </contour>
    <contour>
      <point x="256" y="488" type="line"/>
      <point x="256" y="350" type="line"/>
      <point x="657" y="350" type="line"/>
      <point x="657" y="488" type="line"/>
    </contour>
    <contour>
      <point x="824" y="10" type="move" name="ogonek"/>
    </contour>
    <contour>
      <point x="445" y="1760" type="move" name="top"/>
    </contour>
  </outline>
</glyph>
<glyph name="D" format="1">
  <advance width="913"/>
  <unicode hex="0044"/>
  <outline>
    <contour>
      <point x="150" y="1760" type="line"/>
      <point x="150" y="0" type="line"/>
      <point x="435" y="0" type="line" smooth="yes"/>
      <point x="693" y="0"/>
      <point x="787" y="143"/>
      <point x="787" y="506" type="curve" smooth="yes"/>
      <point x="786" y="1266" type="line" smooth="yes"/>
      <point x="786" y="1569"/>
      <point x="723" y="1760"/>
      <point x="441" y="1760" type="curve" smooth="yes"/>
    </contour>
    <contour>
      <point x="563" y="1623"/>
      <point x="618" y="1525"/>
      <point x="618" y="1278" type="curve" smooth="yes"/>
      <point x="619" y="505" type="line" smooth="yes"/>
      <point x="619" y="204"/>
      <point x="558" y="141"/>
      <point x="435" y="141" type="curve" smooth="yes"/>
      <point x="318" y="141" type="line"/>
      <point x="318" y="1623" type="line"/>
      <point x="441" y="1623" type="line" smooth="yes"/>
    </contour>
    <contour>
      <point x="263" y="906" type="move" name="center"/>
    </contour>
    <contour>
      <point x="445" y="1760" type="move" name="top"/>
    </contour>
  </outline>
</glyph>
<glyph name="I" format="1">
  <advance width="512"/>
  <unicode hex="0049"/>
  <outline>
    <contour>
      <point x="172" y="1760" type="line"/>
      <point x="172" y="0" type="line"/>
      <point x="340" y="0" type="line"/>
      <point x="340" y="1760" type="line"/>
    </contour>
    <contour>
      <point x="411" y="10" type="move" name="ogonek"/>
    </contour>
    <contour>
      <point x="256" y="1760" type="move" name="top"/>
    </contour>
  </outline>
</glyph>
<glyph name="L" format="1">
  <advance width="719"/>
  <unicode hex="004C"/>
  <outline>
    <contour>
      <point x="152" y="1760" type="line"/>
      <point x="152" y="0" type="line"/>
      <point x="637" y="0" type="line"/>
      <point x="637" y="136" type="line"/>
      <point x="320" y="136" type="line"/>
      <point x="320" y="1760" type="line"/>
    </contour>
    <contour>
      <point x="553" y="902" type="move" name="center"/>
    </contour>
    <contour>
      <point x="400" y="0" type="move" name="bottom"/>
    </contour>
    <contour>
      <point x="350" y="1760" type="move" name="top"/>
    </contour>
  </outline>
</glyph>
<glyph name="N" format="1">
  <advance width="980"/>
  <unicode hex="004E"/>
  <outline>
    <contour>
      <point x="682" y="1760" type="line"/>
      <point x="682" y="1000" type="line"/>
      <point x="704" y="473" type="line"/>
      <point x="273" y="1760" type="line"/>
      <point x="152" y="1760" type="line"/>
      <point x="152" y="0" type="line"/>
      <point x="308" y="0" type="line"/>
      <point x="308" y="848" type="line"/>
      <point x="297" y="1280" type="line"/>
      <point x="700" y="0" type="line"/>
      <point x="828" y="0" type="line"/>
      <point x="828" y="1760" type="line"/>
    </contour>
    <contour>
      <point x="490" y="1760" type="move" name="top"/>
    </contour>
    <contour>
      <point x="490" y="0" type="move" name="bottom"/>
    </contour>
  </outline>
</glyph>
<glyph name="O" format="1">
  <advance width="900"/>
  <unicode hex="004F"/>
  <outline>
    <contour>
      <point x="176" y="1782"/>
      <point x="128" y="1576"/>
      <point x="128" y="1273" type="curve" smooth="yes"/>
      <point x="128" y="515" type="line" smooth="yes"/>
      <point x="128" y="152"/>
      <point x="194" y="-20"/>
      <point x="452" y="-20" type="curve" smooth="yes"/>
      <point x="710" y="-20"/>
      <point x="772" y="152"/>
      <point x="772" y="515" type="curve" smooth="yes"/>
      <point x="772" y="1273" type="line" smooth="yes"/>
      <point x="772" y="1576"/>
      <point x="740" y="1782"/>
      <point x="458" y="1782" type="curve" smooth="yes"/>
    </contour>
    <contour>
      <point x="580" y="1638"/>
      <point x="604" y="1532"/>
      <point x="604" y="1285" type="curve" smooth="yes"/>
      <point x="604" y="514" type="line" smooth="yes"/>
      <point x="604" y="213"/>
      <point x="575" y="124"/>
      <point x="452" y="124" type="curve" smooth="yes"/>
      <point x="323" y="124"/>
      <point x="296" y="212"/>
      <point x="296" y="514" type="curve" smooth="yes"/>
      <point x="296" y="1286" type="line" smooth="yes"/>
      <point x="296" y="1531"/>
      <point x="330" y="1638"/>
      <point x="458" y="1638" type="curve" smooth="yes"/>
    </contour>
    <contour>
      <point x="450" y="1760" type="move" name="top"/>
    </contour>
  </outline>
</glyph>
<glyph name="P" format="1">
  <advance width="873"/>
  <unicode hex="0050"/>
  <outline>
    <contour>
      <point x="152" y="1760" type="line"/>
      <point x="152" y="0" type="line"/>
      <point x="320" y="0" type="line"/>
      <point x="320" y="690" type="line"/>
      <point x="468" y="690" type="line" smooth="yes"/>
      <point x="726" y="690"/>
      <point x="788" y="867"/>
      <point x="788" y="1230" type="curve" smooth="yes"/>
      <point x="788" y="1251" type="line" smooth="yes"/>
      <point x="788" y="1554"/>
      <point x="756" y="1760"/>
      <point x="474" y="1760" type="curve" smooth="yes"/>
    </contour>
    <contour>
      <point x="596" y="1623"/>
      <point x="620" y="1510"/>
      <point x="620" y="1263" type="curve" smooth="yes"/>
      <point x="620" y="1229" type="line" smooth="yes"/>
      <point x="620" y="928"/>
      <point x="591" y="831"/>
      <point x="468" y="831" type="curve" smooth="yes"/>
      <point x="320" y="831" type="line"/>
      <point x="320" y="1623" type="line"/>
      <point x="474" y="1623" type="line" smooth="yes"/>
    </contour>
    <contour>
      <point x="449" y="1760" type="move" name="top"/>
    </contour>
  </outline>
</glyph>
<glyph name="Q" format="1">
  <advance width="900"/>
  <unicode hex="0051"/>
  <outline>
    <contour>
      <point x="416" y="-15" type="line"/>
      <point x="637" y="-254" type="line"/>
      <point x="719" y="-176" type="line"/>
      <point x="535" y="37" type="line"/>
    </contour>
    <component base="O"/>
  </outline>
</glyph>
<glyph name="S" format="1">
  <advance width="867"/>
  <unicode hex="0053"/>
  <outline>
    <contour>
      <point x="171" y="1782"/>
      <point x="119" y="1604"/>
      <point x="119" y="1347" type="curve" smooth="yes"/>
      <point x="119" y="1146"/>
      <point x="242" y="1022"/>
      <point x="338" y="928" type="curve" smooth="yes"/>
      <point x="444" y="825" type="line" smooth="yes"/>
      <point x="543" y="728"/>
      <point x="601" y="622"/>
      <point x="601" y="449" type="curve" smooth="yes"/>
      <point x="601" y="215"/>
      <point x="592" y="124"/>
      <point x="455" y="124" type="curve" smooth="yes"/>
      <point x="323" y="124"/>
      <point x="299" y="234"/>
      <point x="299" y="518" type="curve" smooth="yes"/>
      <point x="299" y="697" type="line"/>
      <point x="131" y="697" type="line"/>
      <point x="131" y="518" type="line" smooth="yes"/>
      <point x="131" y="215"/>
      <point x="166" y="-20"/>
      <point x="448" y="-20" type="curve" smooth="yes"/>
      <point x="715" y="-20"/>
      <point x="770" y="164"/>
      <point x="770" y="440" type="curve" smooth="yes"/>
      <point x="770" y="667"/>
      <point x="674" y="827"/>
      <point x="556" y="949" type="curve" smooth="yes"/>
      <point x="452" y="1056" type="line" smooth="yes"/>
      <point x="342" y="1170"/>
      <point x="284" y="1212"/>
      <point x="284" y="1372" type="curve" smooth="yes"/>
      <point x="284" y="1556"/>
      <point x="328" y="1638"/>
      <point x="440" y="1638" type="curve" smooth="yes"/>
      <point x="562" y="1638"/>
      <point x="574" y="1510"/>
      <point x="574" y="1263" type="curve" smooth="yes"/>
      <point x="574" y="1150" type="line"/>
      <point x="742" y="1150" type="line"/>
      <point x="742" y="1251" type="line" smooth="yes"/>
      <point x="742" y="1554"/>
      <point x="727" y="1782"/>
      <point x="439" y="1782" type="curve" smooth="yes"/>
    </contour>
    <contour>
      <point x="434" y="1760" type="move" name="top"/>
    </contour>
    <contour>
      <point x="434" y="0" type="move" name="bottom"/>
    </contour>
  </outline>
</glyph>
<glyph name="U" format="1">
  <advance width="948"/>
  <unicode hex="0055"/>
  <outline>
    <contour>
      <point x="628" y="1760" type="line"/>
      <point x="628" y="456" type="line" smooth="yes"/>
      <point x="628" y="240"/>
      <point x="627" y="119"/>
      <point x="476" y="119" type="curve" smooth="yes"/>
      <point x="326" y="119"/>
      <point x="320" y="241"/>
      <point x="320" y="457" type="curve" smooth="yes"/>
      <point x="320" y="1760" type="line"/>
      <point x="152" y="1760" type="line"/>
      <point x="152" y="452" type="line" smooth="yes"/>
      <point x="152" y="132"/>
      <point x="223" y="-21"/>
      <point x="476" y="-21" type="curve" smooth="yes"/>
      <point x="729" y="-21"/>
      <point x="796" y="132"/>
      <point x="796" y="452" type="curve" smooth="yes"/>
      <point x="796" y="1760" type="line"/>
    </contour>
    <contour>
      <point x="642" y="10" type="move" name="ogonek"/>
    </contour>
    <contour>
      <point x="474" y="1760" type="move" name="top"/>
    </contour>
  </outline>
</glyph>
<glyph name="X" format="1">
  <advance width="774"/>
  <unicode hex="0058"/>
  <outline>
    <contour>
      <point x="560" y="1760" type="line"/>
      <point x="361" y="959" type="line"/>
      <point x="316" y="959" type="line"/>
      <point x="68" y="0" type="line"/>
      <point x="213" y="0" type="line"/>
      <point x="413" y="788" type="line"/>
      <point x="460" y="794" type="line"/>
      <point x="705" y="1760" type="line"/>
    </contour>
    <contour>
      <point x="80" y="1760" type="line"/>
      <point x="557" y="0" type="line"/>
      <point x="706" y="0" type="line"/>
      <point x="232" y="1760" type="line"/>
    </contour>
  </outline>
</glyph>
<glyph name="Z" format="1">
  <advance width="736"/>
  <unicode hex="005A"/>
  <outline>
    <contour>
      <point x="159" y="1760" type="line"/>
      <point x="159" y="1625" type="line"/>
      <point x="487" y="1625" type="line"/>
      <point x="126" y="143" type="line"/>
      <point x="126" y="0" type="line"/>
      <point x="652" y="0" type="line"/>
      <point x="652" y="136" type="line"/>
      <point x="297" y="136" type="line"/>
      <point x="660" y="1639" type="line"/>
      <point x="660" y="1760" type="line"/>
    </contour>
    <contour>
      <point x="418" y="1760" type="move" name="top"/>
    </contour>
  </outline>
</glyph>
<glyph name="backslash" format="1">
  <advance width="868"/>
  <unicode hex="005C"/>
  <outline>
    <contour>
      <point x="127" y="1761" type="line"/>
      <point x="538" y="0" type="line"/>
      <point x="683" y="0" type="line"/>
      <point x="273" y="1761" type="line"/>
    </contour>
  </outline>
</glyph>
<glyph name="a" format="1">
  <advance width="891"/>
  <unicode hex="0061"/>
  <outline>
    <contour>
      <point x="177" y="1518"/>
      <point x="156" y="1302"/>
      <point x="156" y="1056" type="curve" smooth="yes"/>
      <point x="156" y="1015" type="line"/>
      <point x="324" y="1015" type="line"/>
      <point x="324" y="1057" type="line" smooth="yes"/>
      <point x="324" y="1284"/>
      <point x="338" y="1374"/>
      <point x="457" y="1374" type="curve" smooth="yes"/>
      <point x="578" y="1374"/>
      <point x="582" y="1281"/>
      <point x="582" y="1064" type="curve" smooth="yes"/>
      <point x="582" y="226" type="line"/>
      <point x="561" y="184"/>
      <point x="496" y="126"/>
      <point x="420" y="126" type="curve" smooth="yes"/>
      <point x="328" y="126"/>
      <point x="306" y="200"/>
      <point x="306" y="390" type="curve" smooth="yes"/>
      <point x="306" y="516" type="line" smooth="yes"/>
      <point x="306" y="707"/>
      <point x="350" y="730"/>
      <point x="604" y="844" type="curve"/>
      <point x="604" y="967" type="line"/>
      <point x="342" y="855"/>
      <point x="138" y="793"/>
      <point x="138" y="556" type="curve" smooth="yes"/>
      <point x="138" y="380" type="line" smooth="yes"/>
      <point x="138" y="130"/>
      <point x="216" y="-12"/>
      <point x="383" y="-12" type="curve" smooth="yes"/>
      <point x="504" y="-12"/>
      <point x="568" y="73"/>
      <point x="582" y="118" type="curve"/>
      <point x="582" y="0" type="line"/>
      <point x="750" y="0" type="line"/>
      <point x="750" y="991" type="line" smooth="yes"/>
      <point x="750" y="1332"/>
      <point x="737" y="1518"/>
      <point x="458" y="1518" type="curve" smooth="yes"/>
    </contour>
    <contour>
      <point x="802" y="10" type="move" name="ogonek"/>
    </contour>
    <contour>
      <point x="464" y="1500" type="move" name="top"/>
    </contour>
  </outline>
</glyph>
<glyph name="h" format="1">
  <advance width="939"/>
  <unicode hex="0068"/>
  <outline>
    <contour>
      <point x="156" y="1782" type="line"/>
      <point x="156" y="0" type="line"/>
      <point x="324" y="0" type="line"/>
      <point x="324" y="1179" type="line" smooth="yes"/>
      <point x="324" y="1322"/>
      <point x="409" y="1368"/>
      <point x="492" y="1368" type="curve" smooth="yes"/>
      <point x="570" y="1368"/>
      <point x="625" y="1331"/>
      <point x="625" y="1194" type="curve" smooth="yes"/>
      <point x="625" y="0" type="line"/>
      <point x="793" y="0" type="line"/>
      <point x="793" y="1206" type="line" smooth="yes"/>
      <point x="793" y="1421"/>
      <point x="702" y="1519"/>
      <point x="566" y="1519" type="curve" smooth="yes"/>
      <point x="448" y="1519"/>
      <point x="350" y="1437"/>
      <point x="324" y="1349" type="curve"/>
      <point x="324" y="1782" type="line"/>
    </contour>
    <contour>
      <point x="246" y="1629" type="move" name="center"/>
    </contour>
    <contour>
      <point x="470" y="1760" type="move" name="top"/>
    </contour>
  </outline>
</glyph>
<glyph name="i" format="1">
  <advance width="484"/>
  <unicode hex="0069"/>
  <outline>
    <contour>
      <point x="158" y="1500" type="line"/>
      <point x="158" y="0" type="line"/>
      <point x="326" y="0" type="line"/>
      <point x="326" y="1500" type="line"/>
    </contour>
    <contour>
      <point x="158" y="1800" type="line"/>
      <point x="158" y="1614" type="line"/>
      <point x="326" y="1614" type="line"/>
      <point x="326" y="1800" type="line"/>
    </contour>
  </outline>
</glyph>
<glyph name="j" format="1">
  <advance width="514"/>
  <unicode hex="006A"/>
  <outline>
    <contour>
      <point x="190" y="1500" type="line"/>
      <point x="190" y="-26" type="line" smooth="yes"/>
      <point x="190" y="-63"/>
      <point x="181" y="-88"/>
      <point x="149" y="-93" type="curve" smooth="yes"/>
      <point x="121" y="-96"/>
      <point x="82" y="-92"/>
      <point x="82" y="-92" type="curve"/>
      <point x="82" y="-212" type="line"/>
      <point x="82" y="-212"/>
      <point x="149" y="-225"/>
      <point x="220" y="-217" type="curve" smooth="yes"/>
      <point x="268" y="-212"/>
      <point x="358" y="-177"/>
      <point x="358" y="-16" type="curve" smooth="yes"/>
      <point x="358" y="1500" type="line"/>
    </contour>
    <contour>
      <point x="190" y="1800" type="line"/>
      <point x="190" y="1614" type="line"/>
      <point x="358" y="1614" type="line"/>
      <point x="358" y="1800" type="line"/>
    </contour>
  </outline>
</glyph>
<glyph name="p" format="1">
  <advance width="901"/>
  <unicode hex="0070"/>
  <outline>
    <contour>
      <point x="447" y="1512"/>
      <point x="365" y="1479"/>
      <point x="324" y="1382" type="curve"/>
      <point x="324" y="1500" type="line"/>
      <point x="156" y="1500" type="line"/>
      <point x="156" y="-268" type="line"/>
      <point x="324" y="-268" type="line"/>
      <point x="324" y="105" type="line"/>
      <point x="352" y="39"/>
      <point x="416" y="-18"/>
      <point x="489" y="-18" type="curve" smooth="yes"/>
      <point x="719" y="-18"/>
      <point x="769" y="197"/>
      <point x="769" y="479" type="curve" smooth="yes"/>
      <point x="769" y="1019" type="line" smooth="yes"/>
      <point x="769" y="1300"/>
      <point x="735" y="1512"/>
      <point x="526" y="1512" type="curve" smooth="yes"/>
    </contour>
    <contour>
      <point x="590" y="1373"/>
      <point x="601" y="1250"/>
      <point x="601" y="1063" type="curve" smooth="yes"/>
      <point x="601" y="465" type="line" smooth="yes"/>
      <point x="601" y="226"/>
      <point x="576" y="129"/>
      <point x="470" y="128" type="curve" smooth="yes"/>
      <point x="349" y="128"/>
      <point x="324" y="232"/>
      <point x="324" y="459" type="curve" smooth="yes"/>
      <point x="324" y="1061" type="line" smooth="yes"/>
      <point x="324" y="1336"/>
      <point x="382" y="1373"/>
      <point x="476" y="1373" type="curve" smooth="yes"/>
    </contour>
  </outline>
</glyph>
<glyph name="s" format="1">
  <advance width="773"/>
  <unicode hex="0073"/>
  <outline>
    <contour>
      <point x="213" y="1518"/>
      <point x="92" y="1408"/>
      <point x="92" y="1175" type="curve" smooth="yes"/>
      <point x="92" y="1023"/>
      <point x="164" y="880"/>
      <point x="293" y="754" type="curve" smooth="yes"/>
      <point x="334" y="715"/>
      <point x="363" y="686"/>
      <point x="381" y="667" type="curve" smooth="yes"/>
      <point x="488" y="560"/>
      <point x="539" y="447"/>
      <point x="539" y="337" type="curve" smooth="yes"/>
      <point x="539" y="179"/>
      <point x="496" y="129"/>
      <point x="404" y="129" type="curve" smooth="yes"/>
      <point x="312" y="129"/>
      <point x="276" y="236"/>
      <point x="276" y="427" type="curve" smooth="yes"/>
      <point x="276" y="533" type="line"/>
      <point x="108" y="533" type="line"/>
      <point x="108" y="409" type="line" smooth="yes"/>
      <point x="108" y="100"/>
      <point x="219" y="-20"/>
      <point x="415" y="-20" type="curve" smooth="yes"/>
      <point x="616" y="-20"/>
      <point x="710" y="120"/>
      <point x="710" y="331" type="curve" smooth="yes"/>
      <point x="710" y="493"/>
      <point x="635" y="642"/>
      <point x="503" y="772" type="curve" smooth="yes"/>
      <point x="416" y="856" type="line" smooth="yes"/>
      <point x="306" y="965"/>
      <point x="256" y="1076"/>
      <point x="259" y="1183" type="curve" smooth="yes"/>
      <point x="264" y="1324"/>
      <point x="307" y="1368"/>
      <point x="396" y="1368" type="curve" smooth="yes"/>
      <point x="488" y="1368"/>
      <point x="517" y="1261"/>
      <point x="517" y="1070" type="curve" smooth="yes"/>
      <point x="517" y="964" type="line"/>
      <point x="685" y="964" type="line"/>
      <point x="685" y="1030" type="line" smooth="yes"/>
      <point x="685" y="1401"/>
      <point x="581" y="1518"/>
      <point x="395" y="1518" type="curve" smooth="yes"/>
    </contour>
    <contour>
      <point x="407" y="1500" type="move" name="top"/>
    </contour>
    <contour>
      <point x="387" y="0" type="move" name="bottom"/>
    </contour>
  </outline>
</glyph>
<glyph name="v" format="1">
  <advance width="702"/>
  <unicode hex="0076"/>
  <outline>
    <contour>
      <point x="504" y="1500" type="line"/>
      <point x="398" y="627" type="line"/>
      <point x="368" y="306" type="line"/>
      <point x="350" y="306" type="line"/>
      <point x="314" y="626" type="line"/>
      <point x="199" y="1500" type="line"/>
      <point x="44" y="1500" type="line"/>
      <point x="255" y="0" type="line"/>
      <point x="443" y="0" type="line"/>
      <point x="658" y="1500" type="line"/>
    </contour>
  </outline>
</glyph>
<glyph name="z" format="1">
  <advance width="650"/>
  <unicode hex="007A"/>
  <outline>
    <contour>
      <point x="105" y="1500" type="line"/>
      <point x="105" y="1355" type="line"/>
      <point x="409" y="1355" type="line"/>
      <point x="80" y="123" type="line"/>
      <point x="80" y="0" type="line"/>
      <point x="567" y="0" type="line"/>
      <point x="567" y="145" type="line"/>
      <point x="253" y="145" type="line"/>
      <point x="586" y="1391" type="line"/>
      <point x="586" y="1500" type="line"/>
    </contour>
    <contour>
      <point x="372" y="1500" type="move" name="top"/>
    </contour>
  </outline>
</glyph>
<glyph name="dieresis" format="1">
  <advance width="976"/>
  <unicode hex="00A8"/>
  <outline>
    <contour>
      <point x="631" y="262" type="line"/>
      <point x="631" y="114" type="line"/>
      <point x="829" y="114" type="line"/>
      <point x="829" y="262" type="line"/>
    </contour>
    <contour>
      <point x="147" y="262" type="line"/>
      <point x="147" y="114" type="line"/>
      <point x="345" y="114" type="line"/>
      <point x="345" y="262" type="line"/>
    </contour>
    <contour>
      <point x="488" y="0" type="move" name="_top"/>
    </contour>
  </outline>
</glyph>
<glyph name="ordfeminine" format="1">
  <advance width="927"/>
  <unicode hex="00AA"/>
  <outline>
    <contour>
      <point x="254" y="1608"/>
      <point x="237" y="1434"/>
      <point x="237" y="1237" type="curve" smooth="yes"/>
      <point x="237" y="1204" type="line"/>
      <point x="372" y="1204" type="line"/>
      <point x="372" y="1238" type="line" smooth="yes"/>
      <point x="372" y="1420"/>
      <point x="383" y="1492"/>
      <point x="479" y="1492" type="curve" smooth="yes"/>
      <point x="576" y="1492"/>
      <point x="579" y="1418"/>
      <point x="579" y="1243" type="curve" smooth="yes"/>
      <point x="579" y="571" type="line"/>
      <point x="562" y="538"/>
      <point x="510" y="491"/>
      <point x="449" y="491" type="curve" smooth="yes"/>
      <point x="375" y="491"/>
      <point x="357" y="550"/>
      <point x="357" y="703" type="curve" smooth="yes"/>
      <point x="357" y="804" type="line" smooth="yes"/>
      <point x="357" y="957"/>
      <point x="393" y="976"/>
      <point x="596" y="1067" type="curve"/>
      <point x="596" y="1166" type="line"/>
      <point x="386" y="1076"/>
      <point x="223" y="1026"/>
      <point x="223" y="836" type="curve" smooth="yes"/>
      <point x="223" y="695" type="line" smooth="yes"/>
      <point x="223" y="494"/>
      <point x="285" y="380"/>
      <point x="419" y="380" type="curve" smooth="yes"/>
      <point x="516" y="380"/>
      <point x="568" y="449"/>
      <point x="579" y="485" type="curve"/>
      <point x="579" y="390" type="line"/>
      <point x="714" y="390" type="line"/>
      <point x="714" y="1185" type="line" smooth="yes"/>
      <point x="714" y="1458"/>
      <point x="703" y="1608"/>
      <point x="479" y="1608" type="curve" smooth="yes"/>
    </contour>
  </outline>
</glyph>
<glyph name="macron" format="1">
  <advance width="696"/>
  <unicode hex="00AF"/>
  <outline>
    <contour>
      <point x="90" y="210" type="line"/>
      <point x="90" y="91" type="line"/>
      <point x="587" y="91" type="line"/>
      <point x="587" y="210" type="line"/>
    </contour>
    <contour>
      <point x="336" y="154" type="move" name="_center"/>
    </contour>
    <contour>
      <point x="348" y="0" type="move" name="_top"/>
    </contour>
  </outline>
</glyph>
<glyph name="periodcentered" format="1">
  <advance width="480"/>
  <unicode hex="00B7"/>
  <outline>
    <contour>
      <point x="158" y="966" type="line"/>
      <point x="158" y="780" type="line"/>
      <point x="338" y="780" type="line"/>
      <point x="338" y="966" type="line"/>
    </contour>
    <contour>
      <point x="245" y="876" type="move" name="_center"/>
    </contour>
  </outline>
</glyph>
<glyph name="onequarter" format="1">
  <advance width="1535"/>
  <unicode hex="00BC"/>
  <outline>
    <contour>
      <point x="944" y="1768" type="line"/>
      <point x="478" y="0" type="line"/>
      <point x="608" y="0" type="line"/>
      <point x="1075" y="1768" type="line"/>
    </contour>
    <component base="one" xOffset="60" yOffset="438" xScale="0.75" yScale="0.75"/>
    <component base="four" xOffset="846" yOffset="1" xScale="0.68" yScale="0.68"/>
  </outline>
</glyph>
<glyph name="onehalf" format="1">
  <advance width="1620"/>
  <unicode hex="00BD"/>
  <outline>
    <contour>
      <point x="944" y="1768" type="line"/>
      <point x="478" y="0" type="line"/>
      <point x="608" y="0" type="line"/>
      <point x="1075" y="1768" type="line"/>
    </contour>
    <component base="one" xOffset="60" yOffset="438" xScale="0.75" yScale="0.75"/>
    <component base="two" xOffset="983" yOffset="1" xScale="0.75" yScale="0.75"/>
  </outline>
</glyph>
<glyph name="threequarters" format="1">
  <advance width="1555"/>
  <unicode hex="00BE"/>
  <outline>
    <contour>
      <point x="1007" y="1768" type="line"/>
      <point x="541" y="0" type="line"/>
      <point x="671" y="0" type="line"/>
      <point x="1138" y="1768" type="line"/>
    </contour>
    <component base="four" xOffset="866" yOffset="1" xScale="0.68" yScale="0.68"/>
    <component base="three" xOffset="60" yOffset="565" xScale="0.68" yScale="0.68"/>
  </outline>
</glyph>
<glyph name="AE" format="1">
  <advance width="1186"/>
  <unicode hex="00C6"/>
  <outline>
    <contour>
      <point x="452" y="1760" type="line"/>
      <point x="74" y="0" type="line"/>
      <point x="234" y="0" type="line"/>
      <point x="306" y="350" type="line"/>
      <point x="590" y="350" type="line"/>
      <point x="590" y="0" type="line"/>
      <point x="1075" y="0" type="line"/>
      <point x="1075" y="136" type="line"/>
      <point x="758" y="136" type="line"/>
      <point x="758" y="828" type="line"/>
      <point x="1057" y="828" type="line"/>
      <point x="1057" y="966" type="line"/>
      <point x="758" y="966" type="line"/>
      <point x="758" y="1625" type="line"/>
      <point x="1075" y="1625" type="line"/>
      <point x="1075" y="1760" type="line"/>
    </contour>
    <contour>
      <point x="590" y="488" type="line"/>
      <point x="335" y="488" type="line"/>
      <point x="569" y="1626" type="line"/>
      <point x="571" y="1626" type="line"/>
      <point x="590" y="1627" type="line"/>
    </contour>
    <contour>
      <point x="685" y="0" type="move" name="top"/>
    </contour>
  </outline>
</glyph>
<glyph name="Thorn" format="1">
  <advance width="893"/>
  <unicode hex="00DE"/>
  <outline>
    <contour>
      <point x="172" y="1760" type="line"/>
      <point x="172" y="0" type="line"/>
      <point x="340" y="0" type="line"/>
      <point x="340" y="430" type="line"/>
      <point x="488" y="430" type="line" smooth="yes"/>
      <point x="746" y="430"/>
      <point x="808" y="607"/>
      <point x="808" y="970" type="curve" smooth="yes"/>
      <point x="808" y="991" type="line" smooth="yes"/>
      <point x="808" y="1294"/>
      <point x="776" y="1500"/>
      <point x="494" y="1500" type="curve" smooth="yes"/>
      <point x="340" y="1500" type="line"/>
      <point x="340" y="1760" type="line"/>
    </contour>
    <contour>
      <point x="616" y="1363"/>
      <point x="640" y="1250"/>
      <point x="640" y="1003" type="curve" smooth="yes"/>
      <point x="640" y="969" type="line" smooth="yes"/>
      <point x="640" y="668"/>
      <point x="611" y="571"/>
      <point x="488" y="571" type="curve" smooth="yes"/>
      <point x="340" y="571" type="line"/>
      <point x="340" y="1363" type="line"/>
      <point x="494" y="1363" type="line" smooth="yes"/>
    </contour>
  </outline>
</glyph>
<glyph name="germandbls" format="1">
  <advance width="949"/>
  <unicode hex="00DF"/>
  <outline>
    <contour>
      <point x="168" y="1781"/>
      <point x="150" y="1660"/>
      <point x="150" y="1417" type="curve" smooth="yes"/>
      <point x="150" y="0" type="line"/>
      <point x="316" y="0" type="line"/>
      <point x="316" y="1490" type="line" smooth="yes"/>
      <point x="316" y="1627"/>
      <point x="355" y="1667"/>
      <point x="463" y="1667" type="curve" smooth="yes"/>
      <point x="591" y="1667"/>
      <point x="629" y="1627"/>
      <point x="629" y="1490" type="curve" smooth="yes"/>
      <point x="629" y="1170" type="line" smooth="yes"/>
      <point x="629" y="1047"/>
      <point x="579" y="1011"/>
      <point x="435" y="1011" type="curve"/>
      <point x="435" y="863" type="line"/>
      <point x="628" y="863"/>
      <point x="685" y="816"/>
      <point x="685" y="656" type="curve" smooth="yes"/>
      <point x="685" y="395" type="line" smooth="yes"/>
      <point x="685" y="170"/>
      <point x="655" y="141"/>
      <point x="426" y="141" type="curve"/>
      <point x="426" y="0" type="line"/>
      <point x="530" y="0" type="line" smooth="yes"/>
      <point x="830" y="0"/>
      <point x="851" y="177"/>
      <point x="851" y="476" type="curve" smooth="yes"/>
      <point x="851" y="553" type="line" smooth="yes"/>
      <point x="851" y="813"/>
      <point x="799" y="903"/>
      <point x="624" y="945" type="curve"/>
      <point x="753" y="987"/>
      <point x="791" y="1050"/>
      <point x="791" y="1220" type="curve" smooth="yes"/>
      <point x="791" y="1417" type="line" smooth="yes"/>
      <point x="791" y="1698"/>
      <point x="719" y="1781"/>
      <point x="451" y="1781" type="curve" smooth="yes"/>
    </contour>
  </outline>
</glyph>
<glyph name="ae" format="1">
  <advance width="1302"/>
  <unicode hex="00E6"/>
  <outline>
    <contour>
      <point x="793" y="1518"/>
      <point x="724" y="1468"/>
      <point x="677" y="1396" type="curve"/>
      <point x="634" y="1471"/>
      <point x="566" y="1518"/>
      <point x="458" y="1518" type="curve" smooth="yes"/>
      <point x="177" y="1518"/>
      <point x="156" y="1302"/>
      <point x="156" y="1056" type="curve" smooth="yes"/>
      <point x="156" y="1015" type="line"/>
      <point x="324" y="1015" type="line"/>
      <point x="324" y="1057" type="line" smooth="yes"/>
      <point x="324" y="1284"/>
      <point x="338" y="1374"/>
      <point x="457" y="1374" type="curve" smooth="yes"/>
      <point x="578" y="1374"/>
      <point x="582" y="1298"/>
      <point x="582" y="1064" type="curve" smooth="yes"/>
      <point x="582" y="958" type="line"/>
      <point x="331" y="851"/>
      <point x="138" y="786"/>
      <point x="138" y="556" type="curve" smooth="yes"/>
      <point x="138" y="380" type="line" smooth="yes"/>
      <point x="138" y="130"/>
      <point x="216" y="-12"/>
      <point x="383" y="-12" type="curve" smooth="yes"/>
      <point x="500" y="-12"/>
      <point x="588" y="59"/>
      <point x="629" y="130" type="curve"/>
      <point x="666" y="53"/>
      <point x="778" y="-18"/>
      <point x="887" y="-18" type="curve" smooth="yes"/>
      <point x="1168" y="-18"/>
      <point x="1176" y="198"/>
      <point x="1176" y="504" type="curve" smooth="yes"/>
      <point x="1176" y="558" type="line"/>
      <point x="1012" y="558" type="line"/>
      <point x="1012" y="443" type="line" smooth="yes"/>
      <point x="1012" y="246"/>
      <point x="1006" y="126"/>
      <point x="887" y="126" type="curve" smooth="yes"/>
      <point x="761" y="126"/>
      <point x="750" y="231"/>
      <point x="750" y="448" type="curve" smooth="yes"/>
      <point x="750" y="749" type="line"/>
      <point x="1180" y="749" type="line"/>
      <point x="1180" y="1010" type="line" smooth="yes"/>
      <point x="1180" y="1300"/>
      <point x="1164" y="1518"/>
      <point x="893" y="1518" type="curve" smooth="yes"/>
    </contour>
    <contour>
      <point x="582" y="509" type="line"/>
      <point x="584" y="240" type="line"/>
      <point x="543" y="162"/>
      <point x="474" y="126"/>
      <point x="420" y="126" type="curve" smooth="yes"/>
      <point x="328" y="126"/>
      <point x="306" y="200"/>
      <point x="306" y="390" type="curve" smooth="yes"/>
      <point x="306" y="516" type="line" smooth="yes"/>
      <point x="306" y="701"/>
      <point x="347" y="728"/>
      <point x="582" y="834" type="curve"/>
    </contour>
    <contour>
      <point x="1012" y="1374"/>
      <point x="1012" y="1266"/>
      <point x="1012" y="1070" type="curve" smooth="yes"/>
      <point x="1012" y="879" type="line"/>
      <point x="750" y="879" type="line"/>
      <point x="750" y="1062" type="line" smooth="yes"/>
      <point x="750" y="1249"/>
      <point x="766" y="1374"/>
      <point x="893" y="1374" type="curve" smooth="yes"/>
    </contour>
    <contour>
      <point x="779" y="460" type="move" name="top"/>
    </contour>
  </outline>
</glyph>
<glyph name="hbar" format="1">
  <advance width="939"/>
  <unicode hex="0127"/>
  <outline>
    <component base="h"/>
    <component base="macron" xOffset="-90" yOffset="1475"/>
    <contour>
      <point x="250" y="1634" type="move" name="center"/>
    </contour>
  </outline>
</glyph>
<glyph name="dotlessi" format="1">
  <advance width="484"/>
  <unicode hex="0131"/>
  <outline>
    <contour>
      <point x="158" y="1500" type="line"/>
      <point x="158" y="0" type="line"/>
      <point x="326" y="0" type="line"/>
      <point x="326" y="1500" type="line"/>
    </contour>
    <contour>
      <point x="407" y="10" type="move" name="ogonek"/>
    </contour>
    <contour>
      <point x="233" y="1500" type="move" name="top"/>
    </contour>
  </outline>
</glyph>
<glyph name="oe" format="1">
  <advance width="1733"/>
  <unicode hex="0153"/>
  <outline>
    <contour>
      <point x="783" y="1518"/>
      <point x="712" y="1469"/>
      <point x="665" y="1398" type="curve"/>
      <point x="620" y="1469"/>
      <point x="549" y="1518"/>
      <point x="442" y="1518" type="curve" smooth="yes"/>
      <point x="172" y="1518"/>
      <point x="132" y="1303"/>
      <point x="132" y="1021" type="curve" smooth="yes"/>
      <point x="132" y="509" type="line" smooth="yes"/>
      <point x="132" y="198"/>
      <point x="163" y="-18"/>
      <point x="442" y="-18" type="curve" smooth="yes"/>
      <point x="545" y="-18"/>
      <point x="613" y="32"/>
      <point x="659" y="103" type="curve"/>
      <point x="704" y="31"/>
      <point x="774" y="-18"/>
      <point x="884" y="-18" type="curve" smooth="yes"/>
      <point x="1165" y="-18"/>
      <point x="1173" y="198"/>
      <point x="1173" y="504" type="curve" smooth="yes"/>
      <point x="1173" y="558" type="line"/>
      <point x="1009" y="558" type="line"/>
      <point x="1009" y="443" type="line" smooth="yes"/>
      <point x="1009" y="246"/>
      <point x="1003" y="126"/>
      <point x="884" y="126" type="curve" smooth="yes"/>
      <point x="758" y="126"/>
      <point x="747" y="231"/>
      <point x="747" y="448" type="curve" smooth="yes"/>
      <point x="747" y="749" type="line"/>
      <point x="1177" y="749" type="line"/>
      <point x="1177" y="1010" type="line" smooth="yes"/>
      <point x="1177" y="1300"/>
      <point x="1161" y="1518"/>
      <point x="890" y="1518" type="curve" smooth="yes"/>
    </contour>
    <contour>
      <point x="561" y="1374"/>
      <point x="579" y="1245"/>
      <point x="579" y="1058" type="curve" smooth="yes"/>
      <point x="579" y="455" type="line" smooth="yes"/>
      <point x="579" y="258"/>
      <point x="561" y="126"/>
      <point x="442" y="126" type="curve" smooth="yes"/>
      <point x="316" y="126"/>
      <point x="300" y="258"/>
      <point x="300" y="455" type="curve" smooth="yes"/>
      <point x="300" y="1058" type="line" smooth="yes"/>
      <point x="300" y="1245"/>
      <point x="315" y="1374"/>
      <point x="442" y="1374" type="curve" smooth="yes"/>
    </contour>
    <contour>
      <point x="1010" y="1374"/>
      <point x="1010" y="1266"/>
      <point x="1010" y="1070" type="curve" smooth="yes"/>
      <point x="1010" y="879" type="line"/>
      <point x="748" y="879" type="line"/>
      <point x="748" y="1062" type="line" smooth="yes"/>
      <point x="748" y="1249"/>
      <point x="764" y="1374"/>
      <point x="891" y="1374" type="curve" smooth="yes"/>
    </contour>
    <contour>
      <point x="757" y="0" type="move" name="top"/>
    </contour>
  </outline>
</glyph>
<glyph name="circumflex" format="1">
  <advance width="970"/>
  <unicode hex="02C6"/>
  <outline>
    <contour>
      <point x="391" y="1849" type="line"/>
      <point x="259" y="1582" type="line"/>
      <point x="399" y="1582" type="line"/>
      <point x="485" y="1767" type="line"/>
      <point x="571" y="1582" type="line"/>
      <point x="710" y="1582" type="line"/>
      <point x="579" y="1849" type="line"/>
    </contour>
    <contour>
      <point x="485" y="1500" type="move" name="_top"/>
    </contour>
  </outline>
</glyph>
<glyph name="ring" format="1">
  <advance width="923"/>
  <unicode hex="02DA"/>
  <outline>
    <contour>
      <point x="342" y="406"/>
      <point x="282" y="324"/>
      <point x="282" y="242" type="curve" smooth="yes"/>
      <point x="282" y="160"/>
      <point x="342" y="78"/>
      <point x="461" y="78" type="curve" smooth="yes"/>
      <point x="581" y="78"/>
      <point x="640" y="160"/>
      <point x="640" y="242" type="curve" smooth="yes"/>
      <point x="640" y="324"/>
      <point x="581" y="406"/>
      <point x="461" y="406" type="curve" smooth="yes"/>
    </contour>
    <contour>
      <point x="530" y="349"/>
      <point x="564" y="296"/>
      <point x="564" y="243" type="curve" smooth="yes"/>
      <point x="564" y="189"/>
      <point x="530" y="136"/>
      <point x="461" y="136" type="curve" smooth="yes"/>
      <point x="395" y="136"/>
      <point x="361" y="189"/>
      <point x="361" y="243" type="curve" smooth="yes"/>
      <point x="361" y="296"/>
      <point x="395" y="349"/>
      <point x="461" y="349" type="curve" smooth="yes"/>
    </contour>
    <contour>
      <point x="462" y="0" type="move" name="_top"/>
    </contour>
  </outline>
</glyph>
<glyph name="commaaccentcomb" format="1">
  <advance width="528"/>
  <unicode hex="0326"/>
  <outline>
    <contour>
      <point x="160" y="204" type="line"/>
      <point x="160" y="0" type="line"/>
      <point x="263" y="0" type="line"/>
      <point x="218" y="-278" type="line"/>
      <point x="289" y="-278" type="line"/>
      <point x="370" y="9" type="line"/>
      <point x="370" y="204" type="line"/>
    </contour>
    <contour>
      <point x="281" y="354" type="move" name="_bottom"/>
    </contour>
  </outline>
</glyph>
<glyph name="mu" format="1">
  <advance width="939"/>
  <unicode hex="03BC"/>
  <outline>
    <contour>
      <point x="615" y="1500" type="line"/>
      <point x="615" y="315" type="line" smooth="yes"/>
      <point x="615" y="205"/>
      <point x="558" y="132"/>
      <point x="455" y="132" type="curve" smooth="yes"/>
      <point x="365" y="132"/>
      <point x="314" y="180"/>
      <point x="314" y="184" type="curve" smooth="yes"/>
      <point x="314" y="1500" type="line"/>
      <point x="146" y="1500" type="line"/>
      <point x="146" y="-186" type="line"/>
      <point x="313" y="-186" type="line"/>
      <point x="313" y="-7" type="line"/>
      <point x="338" y="-16"/>
      <point x="364" y="-20"/>
      <point x="388" y="-20" type="curve" smooth="yes"/>
      <point x="506" y="-20"/>
      <point x="589" y="63"/>
      <point x="615" y="151" type="curve"/>
      <point x="615" y="0" type="line"/>
      <point x="783" y="0" type="line"/>
      <point x="783" y="1500" type="line"/>
    </contour>
  </outline>
</glyph>
<glyph name="quoteleft" format="1">
  <advance width="595"/>
  <unicode hex="2018"/>
  <outline>
    <contour>
      <point x="277" y="1782" type="line"/>
      <point x="159" y="1354" type="line"/>
      <point x="159" y="1148" type="line"/>
      <point x="443" y="1148" type="line"/>
      <point x="443" y="1363" type="line"/>
      <point x="299" y="1363" type="line"/>
      <point x="390" y="1782" type="line"/>
    </contour>
  </outline>
</glyph>
<glyph name="quotesinglbase" format="1">
  <advance width="484"/>
  <unicode hex="201A"/>
  <outline>
    <contour>
      <point x="108" y="215" type="line"/>
      <point x="108" y="0" type="line"/>
      <point x="252" y="0" type="line"/>
      <point x="161" y="-419" type="line"/>
      <point x="274" y="-419" type="line"/>
      <point x="392" y="9" type="line"/>
      <point x="392" y="215" type="line"/>
    </contour>
  </outline>
</glyph>
<glyph name="quotedblbase" format="1">
  <advance width="1016"/>
  <unicode hex="201E"/>
  <outline>
    <contour>
      <point x="626" y="215" type="line"/>
      <point x="626" y="0" type="line"/>
      <point x="770" y="0" type="line"/>
      <point x="679" y="-419" type="line"/>
      <point x="792" y="-419" type="line"/>
      <point x="910" y="9" type="line"/>
      <point x="910" y="215" type="line"/>
    </contour>
    <contour>
      <point x="176" y="215" type="line"/>
      <point x="176" y="0" type="line"/>
      <point x="320" y="0" type="line"/>
      <point x="229" y="-419" type="line"/>
      <point x="342" y="-419" type="line"/>
      <point x="460" y="9" type="line"/>
      <point x="460" y="215" type="line"/>
    </contour>
  </outline>
</glyph>
<glyph name="perthousand" format="1">
  <advance width="3206"/>
  <unicode hex="2030"/>
  <outline>
    <contour>
      <point x="1368" y="1760" type="line"/>
      <point x="645" y="0" type="line"/>
      <point x="804" y="0" type="line"/>
      <point x="1518" y="1760" type="line"/>
    </contour>
    <contour>
      <point x="239" y="1782"/>
      <point x="172" y="1686"/>
      <point x="172" y="1364" type="curve" smooth="yes"/>
      <point x="172" y="1011" type="line" smooth="yes"/>
      <point x="172" y="679"/>
      <point x="239" y="581"/>
      <point x="465" y="581" type="curve" smooth="yes"/>
      <point x="691" y="581"/>
      <point x="758" y="679"/>
      <point x="758" y="1011" type="curve" smooth="yes"/>
      <point x="758" y="1364" type="line" smooth="yes"/>
      <point x="758" y="1686"/>
      <point x="691" y="1782"/>
      <point x="465" y="1782" type="curve" smooth="yes"/>
    </contour>
    <contour>
      <point x="568" y="1638"/>
      <point x="598" y="1592"/>
      <point x="598" y="1435" type="curve" smooth="yes"/>
      <point x="598" y="936" type="line" smooth="yes"/>
      <point x="598" y="774"/>
      <point x="568" y="726"/>
      <point x="465" y="726" type="curve" smooth="yes"/>
      <point x="362" y="726"/>
      <point x="332" y="774"/>
      <point x="332" y="936" type="curve" smooth="yes"/>
      <point x="332" y="1435" type="line" smooth="yes"/>
      <point x="332" y="1592"/>
      <point x="362" y="1638"/>
      <point x="465" y="1638" type="curve" smooth="yes"/>
    </contour>
    <contour>
      <point x="1489" y="1181"/>
      <point x="1422" y="1085"/>
      <point x="1422" y="763" type="curve" smooth="yes"/>
      <point x="1422" y="410" type="line" smooth="yes"/>
      <point x="1422" y="78"/>
      <point x="1489" y="-20"/>
      <point x="1715" y="-20" type="curve" smooth="yes"/>
      <point x="1941" y="-20"/>
      <point x="2008" y="78"/>
      <point x="2008" y="410" type="curve" smooth="yes"/>
      <point x="2008" y="763" type="line" smooth="yes"/>
      <point x="2008" y="1085"/>
      <point x="1941" y="1181"/>
      <point x="1715" y="1181" type="curve" smooth="yes"/>
    </contour>
    <contour>
      <point x="1818" y="1037"/>
      <point x="1848" y="991"/>
      <point x="1848" y="834" type="curve" smooth="yes"/>
      <point x="1848" y="335" type="line" smooth="yes"/>
      <point x="1848" y="173"/>
      <point x="1818" y="125"/>
      <point x="1715" y="125" type="curve" smooth="yes"/>
      <point x="1612" y="125"/>
      <point x="1582" y="173"/>
      <point x="1582" y="335" type="curve" smooth="yes"/>
      <point x="1582" y="834" type="line" smooth="yes"/>
      <point x="1582" y="991"/>
      <point x="1612" y="1037"/>
      <point x="1715" y="1037" type="curve" smooth="yes"/>
    </contour>
    <contour>
      <point x="2310" y="1181"/>
      <point x="2243" y="1085"/>
      <point x="2243" y="763" type="curve" smooth="yes"/>
      <point x="2243" y="410" type="line" smooth="yes"/>
      <point x="2243" y="78"/>
      <point x="2310" y="-20"/>
      <point x="2536" y="-20" type="curve" smooth="yes"/>
      <point x="2762" y="-20"/>
      <point x="2829" y="78"/>
      <point x="2829" y="410" type="curve" smooth="yes"/>
      <point x="2829" y="763" type="line" smooth="yes"/>
      <point x="2829" y="1085"/>
      <point x="2762" y="1181"/>
      <point x="2536" y="1181" type="curve" smooth="yes"/>
    </contour>
    <contour>
      <point x="2639" y="1037"/>
      <point x="2669" y="991"/>
      <point x="2669" y="834" type="curve" smooth="yes"/>
      <point x="2669" y="335" type="line" smooth="yes"/>
      <point x="2669" y="173"/>
      <point x="2639" y="125"/>
      <point x="2536" y="125" type="curve" smooth="yes"/>
      <point x="2433" y="125"/>
      <point x="2403" y="173"/>
      <point x="2403" y="335" type="curve" smooth="yes"/>
      <point x="2403" y="834" type="line" smooth="yes"/>
      <point x="2403" y="991"/>
      <point x="2433" y="1037"/>
      <point x="2536" y="1037" type="curve" smooth="yes"/>
    </contour>
  </outline>
</glyph>
<glyph name="guilsinglleft" format="1">
  <advance width="606"/>
  <unicode hex="2039"/>
  <outline>
    <contour>
      <point x="78" y="809" type="line"/>
      <point x="78" y="685" type="line"/>
      <point x="548" y="400" type="line"/>
      <point x="548" y="578" type="line"/>
      <point x="236" y="749" type="line"/>
      <point x="548" y="911" type="line"/>
      <point x="548" y="1080" type="line"/>
    </contour>
  </outline>
</glyph>
<glyph name="guilsinglright" format="1">
  <advance width="727"/>
  <unicode hex="203A"/>
  <outline>
    <contour>
      <point x="162" y="911" type="line"/>
      <point x="474" y="749" type="line"/>
      <point x="162" y="578" type="line"/>
      <point x="162" y="400" type="line"/>
      <point x="632" y="685" type="line"/>
      <point x="632" y="809" type="line"/>
      <point x="162" y="1080" type="line"/>
    </contour>
  </outline>
</glyph>
<glyph name="fraction" format="1">
  <advance width="829"/>
  <unicode hex="2044"/>
  <outline>
    <contour>
      <point x="534" y="1768" type="line"/>
      <point x="88" y="0" type="line"/>
      <point x="238" y="0" type="line"/>
      <point x="685" y="1768" type="line"/>
    </contour>
  </outline>
</glyph>
<glyph name="notequal" format="1">
  <advance width="884"/>
  <unicode hex="2260"/>
  <outline>
    <contour>
      <point x="454" y="1765" type="line"/>
      <point x="345" y="1166" type="line"/>
      <point x="103" y="1166" type="line"/>
      <point x="103" y="942" type="line"/>
      <point x="305" y="942" type="line"/>
      <point x="277" y="791" type="line"/>
      <point x="103" y="791" type="line"/>
      <point x="103" y="559" type="line"/>
      <point x="235" y="559" type="line"/>
      <point x="134" y="0" type="line"/>
      <point x="432" y="0" type="line"/>
      <point x="537" y="559" type="line"/>
      <point x="782" y="559" type="line"/>
      <point x="782" y="791" type="line"/>
      <point x="580" y="791" type="line"/>
      <point x="609" y="942" type="line"/>
      <point x="782" y="942" type="line"/>
      <point x="782" y="1166" type="line"/>
      <point x="651" y="1166" type="line"/>
      <point x="763" y="1765" type="line"/>
    </contour>
  </outline>
</glyph>
<glyph name="lessequal" format="1">
  <advance width="781"/>
  <unicode hex="2264"/>
  <outline>
    <contour>
      <point x="63" y="835" type="line"/>
      <point x="63" y="675" type="line"/>
      <point x="641" y="280" type="line"/>
      <point x="641" y="458" type="line"/>
      <point x="185" y="757" type="line"/>
      <point x="641" y="1041" type="line"/>
      <point x="641" y="1226" type="line"/>
    </contour>
    <contour>
      <point x="96" y="122" type="line"/>
      <point x="96" y="0" type="line"/>
      <point x="642" y="0" type="line"/>
      <point x="642" y="122" type="line"/>
    </contour>
  </outline>
</glyph>
<glyph name="greaterequal" format="1">
  <advance width="781"/>
  <unicode hex="2265"/>
  <outline>
    <contour>
      <point x="101" y="1041" type="line"/>
      <point x="557" y="757" type="line"/>
      <point x="101" y="458" type="line"/>
      <point x="101" y="280" type="line"/>
      <point x="679" y="675" type="line"/>
      <point x="679" y="835" type="line"/>
      <point x="101" y="1226" type="line"/>
    </contour>
    <contour>
      <point x="96" y="122" type="line"/>
      <point x="96" y="0" type="line"/>
      <point x="642" y="0" type="line"/>
      <point x="642" y="122" type="line"/>
    </contour>
  </outline>
</glyph>
<glyph name="uniFB02" format="1">
  <advance width="1247"/>
  <unicode hex="FB02"/>
  <outline>
    <contour>
      <point x="271" y="1781"/>
      <point x="130" y="1716"/>
      <point x="130" y="1440" type="curve"/>
      <point x="34" y="1440" type="line"/>
      <point x="34" y="1190" type="line"/>
      <point x="130" y="1190" type="line"/>
      <point x="130" y="0" type="line"/>
      <point x="486" y="0" type="line"/>
      <point x="486" y="1190" type="line"/>
      <point x="600" y="1190" type="line"/>
      <point x="600" y="1440" type="line"/>
      <point x="486" y="1440" type="line"/>
      <point x="486" y="1535"/>
      <point x="510" y="1563"/>
      <point x="609" y="1563" type="curve" smooth="yes"/>
      <point x="656" y="1563"/>
      <point x="711" y="1556"/>
      <point x="768" y="1550" type="curve"/>
      <point x="768" y="0" type="line"/>
      <point x="1132" y="0" type="line"/>
      <point x="1132" y="1709" type="line"/>
      <point x="987" y="1748"/>
      <point x="779" y="1781"/>
      <point x="590" y="1781" type="curve" smooth="yes"/>
    </contour>
  </outline>
</glyph>
